<?xml version="1.0" standalone="no"?>
<!DOCTYPE svg PUBLIC "-//W3C//DTD SVG 20010904//EN"
 "http://www.w3.org/TR/2001/REC-SVG-20010904/DTD/svg10.dtd">
<svg version="1.0" xmlns="http://www.w3.org/2000/svg"
 width="712.000000pt" height="628.000000pt" viewBox="0 0 712.000000 628.000000"
 preserveAspectRatio="xMidYMid meet">

<g transform="translate(0.000000,628.000000) scale(0.100000,-0.100000)"
fill="#000000" stroke="none">
<path d="M4535 5380 c-13 -6 -15 -9 -5 -9 8 0 22 4 30 9 18 12 2 12 -25 0z"/>
<path d="M4295 5295 c-25 -12 -26 -14 -5 -9 28 7 60 23 45 23 -5 0 -23 -6 -40
-14z"/>
<path d="M3460 5253 c-390 -36 -597 -83 -858 -193 -182 -77 -166 -48 -171
-306 -4 -245 9 -432 45 -644 22 -131 68 -327 79 -338 8 -8 166 72 265 134 l95
59 -49 3 c-38 3 -52 -1 -67 -17 -42 -45 -108 -32 -130 26 -12 33 -4 57 28 83
34 27 69 25 99 -5 23 -23 33 -25 109 -25 l85 0 0 70 0 70 -85 0 c-76 0 -86 -2
-109 -25 -36 -35 -77 -33 -110 6 -32 38 -33 60 -3 95 32 37 81 37 113 0 23
-26 27 -27 110 -24 l86 3 18 57 17 56 -43 12 c-36 10 -46 10 -65 -4 -50 -35
-114 -9 -125 50 -8 42 30 87 74 87 33 0 72 -27 72 -50 0 -7 3 -13 8 -13 4 0
28 -7 54 -14 l47 -15 24 44 25 44 -52 60 c-42 49 -57 61 -82 61 -66 0 -97 78
-49 125 49 50 125 16 125 -56 0 -27 10 -46 46 -87 l45 -52 35 28 c29 23 34 33
34 70 0 36 -6 49 -30 72 -38 36 -40 81 -5 115 58 59 151 -5 124 -85 -6 -16
-15 -30 -20 -30 -5 0 -9 -16 -9 -36 0 -20 4 -34 8 -32 4 2 33 14 65 27 l57 25
0 78 c0 62 -3 80 -15 85 -9 3 -22 18 -31 34 -28 55 8 109 71 109 63 0 98 -78
56 -124 -13 -15 -21 -44 -26 -95 l-6 -74 38 6 c21 4 53 7 71 7 l32 0 0 81 c0
72 -3 84 -25 111 -31 37 -32 69 -2 103 31 37 82 37 114 1 30 -35 29 -67 -2
-105 -24 -27 -26 -37 -23 -108 l3 -78 68 -3 67 -3 0 41 c0 27 -7 47 -20 60
-29 29 -27 84 5 115 26 27 41 30 80 15 53 -20 63 -114 14 -141 -10 -5 -19 -15
-19 -21 0 -6 10 -3 21 8 32 28 239 274 239 283 0 5 -65 39 -145 76 -79 38
-142 72 -140 75 3 4 19 11 37 15 l33 8 -30 7 c-29 7 -326 10 -395 3z"/>
<path d="M4065 5215 c-39 -13 -39 -13 -9 -14 16 -1 39 6 50 14 23 17 12 17
-41 0z"/>
<path d="M4717 4882 c-14 -75 -36 -190 -47 -254 -12 -65 -25 -118 -29 -118 -3
1 -40 50 -80 111 -41 60 -80 114 -86 119 -8 7 -36 -23 -92 -98 -45 -59 -111
-143 -147 -186 -61 -73 -65 -80 -51 -96 24 -26 54 -113 61 -175 l7 -55 -123 0
c-98 0 -125 3 -134 15 -9 13 -32 -6 -135 -116 -69 -72 -192 -192 -273 -267
l-149 -135 32 -34 c73 -74 270 -93 384 -36 67 34 117 102 133 180 l8 38 127 3
127 3 0 -29 c0 -77 -54 -213 -116 -289 -44 -54 -141 -118 -212 -140 -31 -9
-63 -21 -70 -27 -18 -13 -7 -72 19 -104 28 -36 25 -86 -7 -111 -34 -27 -64
-27 -98 0 -36 28 -36 86 -1 119 17 16 25 34 25 58 0 33 -1 34 -31 28 -17 -3
-51 -6 -75 -6 l-44 0 0 -76 c0 -67 3 -80 25 -106 32 -37 32 -72 0 -103 -45
-46 -118 -23 -131 41 -4 24 0 37 20 61 23 28 26 40 26 110 l0 78 -62 17 c-35
9 -64 15 -65 14 -1 0 -3 -33 -4 -73 -2 -55 2 -75 14 -88 59 -58 4 -152 -76
-131 -33 8 -60 56 -51 91 3 14 17 34 30 44 22 17 24 26 24 102 l0 84 -62 30
c-34 17 -65 32 -70 33 -4 2 -8 -16 -8 -41 0 -31 6 -49 20 -62 28 -25 26 -76
-3 -103 -74 -70 -173 39 -101 111 20 21 25 33 22 66 l-3 41 -105 -76 c-58 -42
-135 -94 -172 -116 -38 -22 -68 -44 -68 -48 0 -14 98 -136 174 -217 132 -140
348 -303 528 -398 l76 -39 53 24 c67 32 264 160 349 229 337 270 568 628 689
1066 80 293 124 710 106 1019 l-7 123 -33 16 -33 16 -25 -137z"/>
<path d="M3590 4975 c-18 -21 -5 -47 22 -43 26 3 37 36 16 49 -18 12 -24 11
-38 -6z"/>
<path d="M3390 4935 c-18 -21 -5 -47 22 -43 26 3 37 36 16 49 -18 12 -24 11
-38 -6z"/>
<path d="M4419 4878 c-19 -24 -26 -37 -16 -29 9 7 17 10 17 6 0 -4 6 -2 14 5
8 6 12 19 9 27 -4 11 -2 14 5 9 7 -4 12 -1 12 8 0 23 -5 20 -41 -26z"/>
<path d="M3791 4886 c-16 -20 -3 -46 24 -46 13 0 26 7 29 16 7 19 -10 44 -29
44 -7 0 -18 -6 -24 -14z"/>
<path d="M3187 4777 c-3 -8 1 -23 8 -34 11 -14 18 -16 32 -7 28 17 23 48 -8
52 -16 2 -29 -3 -32 -11z"/>
<path d="M2945 4697 c-18 -14 -12 -42 10 -51 8 -3 21 2 29 10 28 28 -6 64 -39
41z"/>
<path d="M3454 4631 c-106 -26 -181 -67 -250 -136 -99 -98 -154 -231 -154
-373 l0 -63 31 18 c70 42 96 71 103 117 15 98 91 207 186 268 54 34 158 68
209 68 42 0 51 6 111 73 l43 47 -104 -1 c-63 0 -132 -7 -175 -18z"/>
<path d="M3590 4385 c-168 -162 -363 -315 -600 -471 -275 -182 -455 -264 -575
-264 -75 0 -107 20 -131 85 -15 39 -15 39 -11 -53 7 -158 68 -242 175 -242
138 0 427 138 747 358 210 144 472 348 461 360 -3 3 2 15 11 26 18 21 18 21
-4 2 -13 -10 -20 -23 -16 -29 3 -6 1 -7 -6 -3 -9 6 -8 14 4 32 8 13 12 24 8
24 -5 0 0 5 11 11 15 9 16 13 5 21 -11 7 -9 9 7 5 12 -2 29 0 39 6 14 8 17 7
13 -5 -4 -9 0 -14 11 -13 24 2 42 15 35 26 -3 5 0 8 8 7 7 -2 12 3 10 10 -1 8
1 11 5 9 12 -7 38 15 41 35 2 12 -5 16 -28 14 -17 -1 -34 2 -37 7 -3 6 -1 7 5
3 14 -8 15 -4 6 18 -3 9 -15 16 -26 16 -10 0 -17 4 -13 9 3 5 -2 17 -11 25 -8
9 -12 16 -7 16 4 0 0 5 -10 11 -9 6 -15 14 -13 18 3 4 -3 8 -12 8 -9 0 -55
-37 -102 -82z m5 -15 c-3 -5 0 -10 7 -10 7 0 19 -9 25 -20 11 -16 10 -21 -6
-30 -11 -5 -21 -6 -23 -1 -5 15 -53 18 -50 3 1 -8 -2 -11 -9 -7 -7 5 1 19 22
41 33 34 46 43 34 24z m65 -80 c0 -5 -2 -10 -4 -10 -3 0 -8 5 -11 10 -3 6 -1
10 4 10 6 0 11 -4 11 -10z"/>
<path d="M3569 4343 c-13 -16 -12 -17 4 -4 16 13 21 21 13 21 -2 0 -10 -8 -17
-17z"/>
<path d="M2844 4425 c-9 -23 3 -45 25 -45 25 0 34 14 26 40 -7 23 -43 27 -51
5z"/>
<path d="M2714 4216 c-10 -26 4 -48 28 -44 17 2 23 10 23 28 0 18 -6 26 -23
28 -13 2 -25 -3 -28 -12z"/>
<path d="M3689 4183 c-13 -16 -12 -17 4 -4 16 13 21 21 13 21 -2 0 -10 -8 -17
-17z"/>
<path d="M2714 4016 c-10 -26 4 -48 28 -44 17 2 23 10 23 28 0 18 -6 26 -23
28 -13 2 -25 -3 -28 -12z"/>
<path d="M3192 3278 c-18 -18 -15 -36 9 -49 29 -15 59 12 43 39 -14 22 -36 26
-52 10z"/>
<path d="M2493 3210 c14 -11 28 -20 32 -20 4 0 -4 9 -18 20 -14 11 -28 20 -32
20 -4 0 4 -9 18 -20z"/>
<path d="M3790 3155 c-18 -21 -5 -45 25 -45 14 0 28 7 31 15 7 17 -12 45 -31
45 -7 0 -18 -7 -25 -15z"/>
<path d="M3384 3116 c-10 -26 4 -48 28 -44 17 2 23 10 23 28 0 18 -6 26 -23
28 -13 2 -25 -3 -28 -12z"/>
<path d="M3593 3073 c-7 -2 -13 -16 -13 -29 0 -22 4 -25 27 -22 31 3 44 35 21
49 -14 10 -17 10 -35 2z"/>
<path d="M985 1921 c-91 -24 -168 -91 -212 -186 -26 -55 -28 -70 -28 -175 0
-106 2 -120 29 -177 53 -115 149 -180 280 -190 113 -9 217 29 279 101 26 30
67 117 67 144 0 21 -4 22 -72 22 l-73 -1 -23 -49 c-59 -127 -248 -117 -313 17
-18 38 -23 65 -23 133 -1 101 24 164 82 208 31 24 45 27 107 27 63 0 76 -3
108 -28 19 -15 41 -43 48 -62 l13 -35 73 0 c69 0 73 1 73 23 0 35 -44 119 -81
154 -55 52 -122 76 -219 79 -47 2 -98 0 -115 -5z"/>
<path d="M2847 1913 c-4 -3 -7 -64 -7 -135 l0 -130 -25 31 c-34 39 -82 54
-161 49 -52 -3 -70 -9 -101 -34 -84 -66 -123 -211 -89 -328 47 -161 235 -230
346 -126 18 17 34 30 36 30 2 0 4 -13 4 -30 l0 -30 70 0 70 0 0 355 0 355 -68
0 c-38 0 -72 -3 -75 -7z m-43 -333 c28 -27 31 -37 34 -102 5 -114 -33 -168
-119 -168 -96 0 -149 127 -99 238 35 77 124 92 184 32z"/>
<path d="M3110 1860 l0 -60 70 0 70 0 0 60 0 60 -70 0 -70 0 0 -60z"/>
<path d="M3400 1795 l0 -75 -40 0 -40 0 0 -50 0 -50 40 0 40 0 0 -155 c0 -170
9 -211 53 -240 29 -19 122 -31 161 -21 24 6 26 11 26 61 l0 54 -42 3 -43 3 -7
60 c-4 33 -5 99 -1 148 l6 87 43 0 44 0 0 50 0 50 -45 0 c-50 0 -48 -3 -49 85
l-1 60 -72 3 -73 3 0 -76z"/>
<path d="M1750 1730 c-22 -5 -49 -24 -72 -50 l-38 -43 0 42 0 41 -70 0 -70 0
0 -255 0 -255 69 0 69 0 4 153 c3 131 6 156 23 181 23 35 70 56 124 56 l39 0
-5 63 c-4 54 -15 79 -33 76 -3 -1 -21 -5 -40 -9z"/>
<path d="M2075 1729 c-91 -17 -142 -55 -183 -133 -22 -43 -26 -64 -26 -131 0
-125 45 -204 144 -248 59 -27 167 -29 232 -4 49 19 121 89 131 127 5 19 0 20
-63 20 -60 0 -73 -3 -96 -25 -14 -13 -41 -27 -60 -31 -67 -12 -144 37 -144 92
l0 24 191 0 192 0 -6 64 c-16 174 -148 277 -312 245z m88 -110 c39 -11 77 -56
77 -91 0 -16 -12 -18 -115 -18 -106 0 -115 2 -115 19 0 26 38 71 74 87 38 16
33 16 79 3z"/>
<path d="M3110 1465 l0 -255 70 0 70 0 0 255 0 255 -70 0 -70 0 0 -255z"/>
</g>
</svg>
