<?xml version="1.0" standalone="no"?>
<!DOCTYPE svg PUBLIC "-//W3C//DTD SVG 20010904//EN"
 "http://www.w3.org/TR/2001/REC-SVG-20010904/DTD/svg10.dtd">
<svg version="1.0" xmlns="http://www.w3.org/2000/svg"
 width="296.000000pt" height="354.000000pt" viewBox="0 0 296.000000 354.000000"
 preserveAspectRatio="xMidYMid meet">

<g transform="translate(0.000000,354.000000) scale(0.100000,-0.100000)"
fill="#000000" stroke="none">
<path d="M2375 3240 c-13 -6 -15 -9 -5 -9 8 0 22 4 30 9 18 12 2 12 -25 0z"/>
<path d="M2135 3155 c-25 -12 -26 -14 -5 -9 28 7 60 23 45 23 -5 0 -23 -6 -40
-14z"/>
<path d="M1300 3113 c-202 -19 -275 -28 -400 -53 -166 -33 -400 -110 -528
-173 l-87 -44 -6 -64 c-11 -105 -10 -416 1 -539 19 -209 80 -533 110 -590 10
-19 12 -19 68 6 31 13 111 57 177 97 l120 72 -47 3 c-38 3 -50 -1 -72 -22 -61
-61 -159 5 -126 84 23 55 84 67 126 25 23 -23 33 -25 107 -25 l82 0 0 65 0 65
-83 0 c-69 0 -88 -4 -109 -20 -44 -34 -95 -25 -118 21 -21 40 -19 57 14 90 36
36 60 37 99 4 27 -23 38 -25 120 -25 l89 0 6 33 c4 17 9 41 12 53 5 17 0 22
-34 33 -35 10 -45 9 -63 -4 -33 -22 -75 -19 -103 10 -40 40 -30 96 22 123 35
19 54 14 89 -24 30 -31 76 -54 110 -54 6 0 23 17 36 38 l26 38 -52 61 c-28 34
-56 60 -63 58 -20 -7 -73 16 -83 35 -29 55 8 120 68 120 50 0 78 -36 72 -93
-1 -10 20 -43 46 -73 l47 -55 31 30 c26 25 31 37 30 75 0 37 -6 49 -27 66 -55
43 -22 140 47 140 32 0 86 -48 86 -77 0 -10 -9 -33 -20 -51 -18 -29 -28 -82
-15 -82 2 0 29 12 60 27 l55 27 0 78 c0 69 -3 80 -25 102 -30 30 -32 64 -5 99
35 44 93 43 127 -2 19 -25 16 -78 -7 -101 -16 -16 -20 -33 -20 -90 l0 -71 38
6 c101 17 92 8 92 92 0 66 -3 79 -25 105 -33 39 -32 73 4 109 36 36 60 37 100
3 38 -32 42 -79 9 -113 -17 -19 -22 -39 -25 -101 l-5 -77 39 -6 c21 -4 53 -7
71 -7 31 0 32 1 32 41 0 30 -6 46 -22 59 -33 26 -30 85 6 116 15 13 38 24 51
24 13 0 36 -11 51 -24 39 -33 39 -89 0 -123 -16 -13 -26 -26 -23 -29 4 -4 189
206 245 278 12 15 -1 24 -135 92 l-148 75 35 12 c34 13 35 13 10 20 -25 7
-322 9 -390 2z"/>
<path d="M1905 3075 c-39 -13 -39 -13 -9 -14 16 -1 39 6 50 14 23 17 12 17
-41 0z"/>
<path d="M2580 2872 c0 -8 -75 -416 -86 -469 -3 -18 -10 -33 -13 -33 -4 0 -42
52 -86 115 -43 64 -81 117 -84 120 -4 2 -51 -53 -104 -123 -53 -70 -118 -153
-143 -184 l-46 -57 31 -63 c19 -39 33 -87 37 -125 l7 -63 -127 0 c-103 0 -128
3 -132 15 -4 11 -53 -33 -165 -149 -88 -90 -212 -211 -275 -267 l-117 -103 42
-37 c49 -44 114 -62 217 -62 97 1 167 25 219 78 40 39 75 113 75 157 0 17 9
18 133 16 l132 -3 -3 -35 c-6 -53 -41 -160 -69 -208 -56 -98 -151 -173 -269
-212 l-64 -22 0 -42 c0 -30 6 -48 20 -61 13 -12 20 -31 20 -57 0 -48 -28 -78
-72 -78 -40 1 -64 17 -78 55 -12 33 -7 56 20 80 13 12 20 31 20 54 l0 36 -70
-3 -70 -4 0 -76 c0 -69 3 -79 25 -101 50 -47 14 -131 -55 -131 -70 0 -106 87
-55 134 23 21 25 31 25 102 l0 79 -65 15 -65 16 0 -73 c0 -60 4 -77 20 -93 47
-47 9 -130 -59 -130 -37 0 -81 38 -81 70 0 26 18 62 36 73 10 6 14 32 14 95
l0 87 -62 32 -63 32 -3 -40 c-2 -28 2 -45 12 -52 39 -30 34 -114 -9 -131 -88
-33 -157 66 -89 129 20 19 25 31 22 63 l-3 39 -90 -64 c-49 -36 -127 -88 -173
-116 -45 -27 -82 -53 -82 -57 0 -14 99 -137 174 -217 132 -140 348 -303 528
-398 l76 -39 53 24 c67 32 264 160 349 229 97 78 254 235 325 326 198 254 345
594 415 960 43 228 67 581 55 799 l-7 123 -34 17 c-19 8 -34 12 -34 8z"/>
<path d="M1424 2825 c-4 -9 -2 -21 4 -27 16 -16 47 -5 47 17 0 26 -42 34 -51
10z"/>
<path d="M1224 2785 c-4 -9 -2 -21 4 -27 16 -16 47 -5 47 17 0 26 -42 34 -51
10z"/>
<path d="M2260 2738 l-33 -43 38 38 c20 21 35 40 32 43 -2 3 -19 -14 -37 -38z"/>
<path d="M1637 2753 c-13 -12 -7 -44 8 -49 24 -10 47 14 34 37 -10 19 -30 25
-42 12z"/>
<path d="M1034 2635 c-8 -21 2 -45 19 -45 20 0 40 27 33 45 -7 19 -45 20 -52
0z"/>
<path d="M780 2535 c0 -20 5 -25 25 -25 20 0 25 5 25 25 0 20 -5 25 -25 25
-20 0 -25 -5 -25 -25z"/>
<path d="M1333 2499 c-171 -29 -321 -138 -389 -284 -32 -68 -56 -180 -52 -244
l3 -53 61 45 c54 40 62 50 67 86 8 64 61 165 112 216 58 58 167 111 260 125
66 10 73 14 125 65 l55 55 -95 -1 c-52 -1 -118 -5 -147 -10z"/>
<path d="M1460 2272 c-33 -29 -58 -58 -55 -62 5 -8 -13 -25 -27 -25 -4 0 -53
-39 -110 -86 -147 -123 -187 -154 -333 -256 -349 -243 -610 -364 -723 -334
-46 13 -69 36 -88 88 l-13 38 0 -60 c-1 -171 67 -275 182 -275 69 0 208 49
362 128 274 141 853 558 820 590 -3 3 2 16 10 29 9 13 12 23 8 23 -5 0 0 5 11
11 15 9 16 13 5 21 -11 7 -9 9 7 5 12 -2 29 0 39 6 15 8 17 7 12 -6 -5 -14 -2
-15 21 -6 36 14 53 29 45 42 -3 5 -1 7 5 3 10 -6 42 29 42 45 0 4 -14 6 -31 5
-16 -1 -33 2 -36 7 -3 6 -1 7 5 3 14 -8 15 -4 6 18 -3 9 -15 16 -26 16 -10 0
-17 4 -13 9 3 5 -2 17 -11 25 -8 9 -12 16 -7 16 4 0 0 5 -10 11 -9 6 -15 14
-13 18 3 4 -1 8 -10 8 -8 0 -41 -25 -74 -55z m-25 -42 c-3 -5 0 -10 7 -10 7 0
19 -9 25 -20 11 -16 10 -21 -7 -30 -14 -7 -20 -7 -20 0 0 5 -10 10 -21 10 -18
0 -19 2 -9 15 7 8 9 15 5 15 -4 0 -2 7 5 15 14 17 24 20 15 5z m65 -80 c0 -5
-2 -10 -4 -10 -3 0 -8 5 -11 10 -3 6 -1 10 4 10 6 0 11 -4 11 -10z"/>
<path d="M684 2285 c-9 -23 3 -45 25 -45 23 0 35 28 20 46 -15 18 -38 18 -45
-1z"/>
<path d="M554 2076 c-10 -26 4 -48 28 -44 17 2 23 10 23 28 0 18 -6 26 -23 28
-13 2 -25 -3 -28 -12z"/>
<path d="M1496 2041 c-14 -15 -15 -21 -4 -27 7 -4 10 -3 5 1 -4 5 0 17 10 27
9 10 14 18 11 18 -3 0 -13 -9 -22 -19z"/>
<path d="M553 1874 c-3 -8 2 -23 11 -32 15 -15 17 -15 32 0 21 21 11 48 -16
48 -11 0 -23 -7 -27 -16z"/>
<path d="M1028 1128 c-8 -22 3 -38 27 -38 24 0 35 16 28 38 -3 6 -15 12 -28
12 -12 0 -25 -6 -27 -12z"/>
<path d="M1631 1016 c-16 -20 -3 -46 24 -46 27 0 36 17 23 43 -10 20 -31 22
-47 3z"/>
<path d="M1231 976 c-17 -20 -2 -48 23 -44 24 3 34 37 14 49 -18 12 -24 11
-37 -5z"/>
<path d="M1430 925 c-18 -21 -5 -47 22 -43 26 3 37 36 16 49 -18 12 -24 11
-38 -6z"/>
</g>
</svg>
